<?xml version="1.0" encoding="utf-8"?>
<!-- Generator: Adobe Illustrator 16.0.3, SVG Export Plug-In . SVG Version: 6.00 Build 0)  -->
<!DOCTYPE svg PUBLIC "-//W3C//DTD SVG 1.1//EN" "http://www.w3.org/Graphics/SVG/1.1/DTD/svg11.dtd">
<svg version="1.1" id="Layer_1" xmlns="http://www.w3.org/2000/svg" xmlns:xlink="http://www.w3.org/1999/xlink" x="0px" y="0px"
	 width="558px" height="84px" viewBox="0 0 558 84" enable-background="new 0 0 558 84" xml:space="preserve">
<g>
	<path fill="#BE1E2D" d="M34,21.85l5.6,15.4H55L42.75,46.7l4.2,15.05L34,52.65l-12.95,9.1l4.2-15.05L13,37.25h15.4L34,21.85z"/>
	<path d="M77.4,20.8v5.6l7.7,7.7l7.7-7.7v-5.6h15.4V67H92.8V48.8l-7.7,7.7l-7.7-7.7V67H62V20.8H77.4z"/>
	<path d="M115.199,67V34.8l14-14h28V67h-15.4v-7.7h-11.2V67H115.199z M130.599,41.8v2.1h11.2v-7.7h-5.6L130.599,41.8z"/>
	<path d="M179.6,20.8v6.3l11.199,11.2V20.8h15.4V67h-15.4v-6.3L179.6,49.5V67h-15.4V20.8H179.6z"/>
	<path d="M213.199,20.8h15.4v11.9l5.6,5.6l5.6-5.6V20.8h15.4v18.9l-13.3,13.3v14h-15.4V53l-13.3-13.3V20.8z"/>
	<path d="M277.6,41.8v2.1h21v15.4h-21V67h-15.4V34.8l14-14h28v15.4h-21L277.6,41.8z"/>
	<path d="M353.198,36.2h-21l7.7,7.7l-7.7,7.7h21V67h-42V51.6l7.7-7.7l-7.7-7.7V20.8h42V36.2z"/>
	<path d="M402.198,36.2h-17.5l15.4,15.4h2.1V67h-42V51.6h17.5l-15.4-15.4h-2.1V20.8h42V36.2z"/>
	<path d="M409.198,36.2V20.8h42v15.4h-13.3V67h-15.4V36.2H409.198z"/>
	<path d="M458.198,67V20.8h42V67H458.198z M473.599,36.2v15.4h11.199V36.2H473.599z"/>
	<path fill="#BE1E2D" d="M528.197,21.85l5.6,15.4h15.4l-12.25,9.45l4.2,15.05l-12.95-9.1l-12.95,9.1l4.2-15.05l-12.25-9.45h15.4
		L528.197,21.85z"/>
</g>
</svg>
