<svg xmlns="http://www.w3.org/2000/svg" xmlns:xlink="http://www.w3.org/1999/xlink" xmlns:lucid="lucid" width="940" height="800"><g transform="translate(-362 -197)" lucid:page-tab-id="0_0"><path d="M722.78 237.33H552.5c-26.66 0-57.62 11.52-76.54 30.24l-43 43.92c-18.06 18-30.96 48.23-30.96 74.15V891.1c0 36.7 30.96 66.23 67.94 66.23h724.12c37.84 0 67.94-30.24 67.94-66.24V425.24c0-36-30.96-65.52-67.94-65.52H890.48c-4.3 0-14.62-6.48-18.06-10.8l-69.66-77.76c-23.22-20.16-53.32-33.84-79.98-33.84z" stroke="#000" stroke-opacity="0" fill="#999"/><path d="M933.6 537.33h-80.47c-12.6 0-27.23 6.08-36.18 15.96l-20.32 23.17c-8.53 9.5-14.63 25.46-14.63 39.14v266.77c0 19.38 14.63 34.96 32.1 34.96h342.24c17.9 0 32.1-15.96 32.1-34.96V636.5c0-19-14.62-34.57-32.1-34.57h-143.48c-2.03 0-6.9-3.42-8.53-5.7L971.4 555.2c-10.97-10.65-25.2-17.87-37.8-17.87z" stroke="#000" stroke-opacity="0" fill="#0c7cba"/><path d="M618.2 397.33h356.6c2.75 0 5 2.24 5 5v90c0 2.76-2.25 5-5 5H623.2c-2.75 0-5-2.24-5-5zm36.17 0v100M618.2 433.5h361.6" stroke="#190e0d" stroke-width="2" fill="#ff8f80"/><path d="M680 388.33c0-2.76 2.24-5 5-5h231.05c2.77 0 5 2.24 5 5v56.53c0 2.76-2.23 5-5 5H685c-2.76 0-5-2.24-5-5z" stroke="#000" stroke-opacity="0" stroke-width="2" fill="#fff" fill-opacity="0"/><use xlink:href="#a" transform="matrix(1,0,0,1,685,388.33333333333337) translate(56.074999999999996 32.1)"/><path d="M689 444.33c0-2.76 2.24-5 5-5h230c2.76 0 5 2.24 5 5v50c0 2.76-2.24 5-5 5H694c-2.76 0-5-2.24-5-5z" stroke="#000" stroke-opacity="0" stroke-width="2" fill="#fff" fill-opacity="0"/><use xlink:href="#b" transform="matrix(1,0,0,1,694,444.33333333333337) translate(56.2 17.799999999999997)"/><use xlink:href="#c" transform="matrix(1,0,0,1,694,444.33333333333337) translate(92.2 17.799999999999997)"/><use xlink:href="#d" transform="matrix(1,0,0,1,694,444.33333333333337) translate(114.2 17.799999999999997)"/><use xlink:href="#e" transform="matrix(1,0,0,1,694,444.33333333333337) translate(163.8 17.799999999999997)"/><use xlink:href="#f" transform="matrix(1,0,0,1,694,444.33333333333337) translate(56.2 39.4)"/><use xlink:href="#g" transform="matrix(1,0,0,1,694,444.33333333333337) translate(92.2 39.4)"/><use xlink:href="#d" transform="matrix(1,0,0,1,694,444.33333333333337) translate(114.2 39.4)"/><use xlink:href="#h" transform="matrix(1,0,0,1,694,444.33333333333337) translate(163.8 39.4)"/><path d="M830.5 621.55h304c2.76 0 5 2.23 5 5v71.78c0 2.76-2.24 5-5 5h-299c-2.76 0-5-2.24-5-5zm30.9 0v81.78m-30.9-50.88h309" stroke="#190e0d" stroke-width="2" fill="#ff8f80"/><path d="M892.08 622.46c0-2.76 2.24-5 5-5h196c2.76 0 5 2.24 5 5v33.83c0 2.75-2.24 5-5 5h-196c-2.76 0-5-2.25-5-5z" stroke="#000" stroke-opacity="0" stroke-width="2" fill="#fff" fill-opacity="0"/><use xlink:href="#a" transform="matrix(1,0,0,1,897.0833333333334,622.4643429487179) translate(38.074999999999996 20.6)"/><path d="M929 659.23c0-2.76 2.24-5 5-5h130c2.76 0 5 2.24 5 5v43.2c0 2.76-2.24 5-5 5H934c-2.76 0-5-2.24-5-5z" stroke="#000" stroke-opacity="0" stroke-width="2" fill="#fff" fill-opacity="0"/><use xlink:href="#b" transform="matrix(1,0,0,1,934,659.2333333333333) translate(6.700000000000003 14.799999999999999)"/><use xlink:href="#c" transform="matrix(1,0,0,1,934,659.2333333333333) translate(42.7 14.799999999999999)"/><use xlink:href="#d" transform="matrix(1,0,0,1,934,659.2333333333333) translate(64.7 14.799999999999999)"/><use xlink:href="#i" transform="matrix(1,0,0,1,934,659.2333333333333) translate(114.3 14.799999999999999)"/><use xlink:href="#b" transform="matrix(1,0,0,1,934,659.2333333333333) translate(6.225000000000001 36.4)"/><use xlink:href="#j" transform="matrix(1,0,0,1,934,659.2333333333333) translate(42.225 36.4)"/><use xlink:href="#d" transform="matrix(1,0,0,1,934,659.2333333333333) translate(65.17500000000001 36.4)"/><use xlink:href="#k" transform="matrix(1,0,0,1,934,659.2333333333333) translate(114.775 36.4)"/><path d="M442 642.77c0-2.76 2.24-5 5-5h193.23c2.76 0 5 2.24 5 5v175c-33.94-30.06-55.08-30.06-67.88-30.06-20.32 0-47.35 30.07-67.68 30.07-12.6 0-33.93 0-67.67-30.06z" stroke="#0a1509" stroke-width="2" fill="#66d15c"/><path d="M429 636.33c0-2.76 2.24-5 5-5h230c2.76 0 5 2.24 5 5v50c0 2.76-2.24 5-5 5H434c-2.76 0-5-2.24-5-5z" stroke="#000" stroke-opacity="0" stroke-width="2" fill="#fff" fill-opacity="0"/><use xlink:href="#l" transform="matrix(1,0,0,1,434,636.3333333333334) translate(92.025 28.6)"/><use xlink:href="#m" transform="matrix(1,0,0,1,434,636.3333333333334) translate(127.97500000000001 28.6)"/><path d="M467 686.55h144c2.76 0 5 2.24 5 5V764c0 2.75-2.24 5-5 5H472c-2.76 0-5-2.25-5-5zm14.9 0V769M467 701.44h149" stroke="#0a1509" stroke-width="2" fill="#66d15c"/><path d="M429 714.33c0-2.76 2.24-5 5-5h230c2.76 0 5 2.24 5 5v50c0 2.76-2.24 5-5 5H434c-2.76 0-5-2.24-5-5z" stroke="#000" stroke-opacity="0" stroke-width="2" fill="#fff" fill-opacity="0"/><use xlink:href="#b" transform="matrix(1,0,0,1,434,714.3333333333334) translate(56.2 17.799999999999997)"/><use xlink:href="#c" transform="matrix(1,0,0,1,434,714.3333333333334) translate(92.2 17.799999999999997)"/><use xlink:href="#d" transform="matrix(1,0,0,1,434,714.3333333333334) translate(114.2 17.799999999999997)"/><use xlink:href="#e" transform="matrix(1,0,0,1,434,714.3333333333334) translate(163.8 17.799999999999997)"/><use xlink:href="#f" transform="matrix(1,0,0,1,434,714.3333333333334) translate(56.2 39.4)"/><use xlink:href="#g" transform="matrix(1,0,0,1,434,714.3333333333334) translate(92.2 39.4)"/><use xlink:href="#d" transform="matrix(1,0,0,1,434,714.3333333333334) translate(114.2 39.4)"/><use xlink:href="#h" transform="matrix(1,0,0,1,434,714.3333333333334) translate(163.8 39.4)"/><path d="M879.5 718.77c0-2.76 2.24-5 5-5h193.23c2.76 0 5 2.24 5 5v175c-33.94-30.06-55.08-30.06-67.88-30.06-20.32 0-47.35 30.07-67.68 30.07-12.6 0-33.93 0-67.67-30.06z" stroke="#0a1509" stroke-width="2" fill="#66d15c"/><path d="M861.5 712.33c0-2.76 2.24-5 5-5h230c2.76 0 5 2.24 5 5v50c0 2.76-2.24 5-5 5h-230c-2.76 0-5-2.24-5-5z" stroke="#000" stroke-opacity="0" stroke-width="2" fill="#fff" fill-opacity="0"/><g><use xlink:href="#l" transform="matrix(1,0,0,1,866.5,712.3333333333334) translate(92.025 28.6)"/><use xlink:href="#n" transform="matrix(1,0,0,1,866.5,712.3333333333334) translate(127.97500000000001 28.6)"/></g><path d="M904.5 762.55h144c2.76 0 5 2.24 5 5V840c0 2.75-2.24 5-5 5h-139c-2.76 0-5-2.25-5-5zm14.9 0V845m-14.9-67.55h149" stroke="#0a1509" stroke-width="2" fill="#66d15c"/><path d="M921.5 780.6c0-2.77 2.24-5 5-5H1059c2.76 0 5 2.23 5 5v64.8c0 2.75-2.24 5-5 5H926.5c-2.76 0-5-2.25-5-5z" stroke="#000" stroke-opacity="0" stroke-width="2" fill="#fff" fill-opacity="0"/><g><use xlink:href="#o" transform="matrix(1,0,0,1,926.5,780.5934164934166) translate(0 14.500000000000002)"/><use xlink:href="#p" transform="matrix(1,0,0,1,926.5,780.5934164934166) translate(37.95 14.500000000000002)"/><use xlink:href="#q" transform="matrix(1,0,0,1,926.5,780.5934164934166) translate(61.85000000000001 14.500000000000002)"/><use xlink:href="#r" transform="matrix(1,0,0,1,926.5,780.5934164934166) translate(113.80000000000001 14.500000000000002)"/><use xlink:href="#f" transform="matrix(1,0,0,1,926.5,780.5934164934166) translate(0 36.1)"/><use xlink:href="#g" transform="matrix(1,0,0,1,926.5,780.5934164934166) translate(36 36.1)"/><use xlink:href="#d" transform="matrix(1,0,0,1,926.5,780.5934164934166) translate(58 36.1)"/><use xlink:href="#s" transform="matrix(1,0,0,1,926.5,780.5934164934166) translate(107.6 36.1)"/><use xlink:href="#t" transform="matrix(1,0,0,1,926.5,780.5934164934166) translate(0 57.7)"/><use xlink:href="#u" transform="matrix(1,0,0,1,926.5,780.5934164934166) translate(37.95 57.7)"/><use xlink:href="#q" transform="matrix(1,0,0,1,926.5,780.5934164934166) translate(61.85000000000001 57.7)"/><use xlink:href="#v" transform="matrix(1,0,0,1,926.5,780.5934164934166) translate(113.80000000000001 57.7)"/></g><path d="M616.2 447.35l-2.8.06-3.53.23-3.3.35-3.13.46-2.94.56-2.8.66-2.66.74-2.55.83-2.46.9-2.36 1-2.28 1.08-2.22 1.16-2.15 1.25-2.1 1.34-2.07 1.44-2.03 1.54-2 1.65-1.96 1.77-1.96 1.92-1.93 2.06-1.92 2.24-1.93 2.42-1.92 2.65-1.93 2.9-1.92 3.2-1.94 3.5-1.94 3.94-1.95 4.4-1.95 4.95-1.97 5.65-1.96 6.5-1.95 7.6-1.9 9.02-1.85 10.9-1.7 13.7-1.5 18.13-1.13 27.84-.12 14.96" stroke="#010c13" stroke-width="2" fill="none"/><path d="M617.2 448.33l-1 .02-.04-2 1.05-.02z" fill="#010c13"/><path d="M535.36 628.1l-4.52-14.3 9.27.07z" stroke="#010c13" stroke-width="2" fill="#010c13"/><path d="M981.8 447.35l2.42.05 3.22.2 3.04.32 2.87.43 2.73.52 2.6.6 2.5.7 2.42.8 2.32.85 2.24.95 2.2 1.03 2.12 1.1 2.08 1.2 2.04 1.3 2 1.4 2 1.5 1.95 1.63 1.94 1.74 1.92 1.9 1.92 2.04 1.92 2.23 1.92 2.43 1.92 2.64 1.93 2.9 1.93 3.2 1.95 3.56 1.97 3.95 1.97 4.44 1.98 5 1.98 5.68 1.96 6.52 1.94 7.56 1.88 8.87 1.78 10.58 1.62 12.86 1.34 16.14.7 17.3" stroke="#010c13" stroke-width="2" fill="none"/><path d="M981.84 446.35l-.04 2-1-.02v-2z" fill="#010c13"/><path d="M1059.28 598.7l-4.88-14.2 9.27-.14z" stroke="#010c13" stroke-width="2" fill="#010c13"/><path d="M1070 680.87l1.33.05 2.15.26 2 .4 1.9.54 1.8.67 1.74.8 1.7.96 1.63 1.1 1.63 1.3 1.6 1.52 1.6 1.75 1.6 2.07 1.6 2.43 1.57 2.9 1.54 3.44 1.46 4.15 1.34 5 1.1 5.98.74 7.1.2 8.2-.5 9.04-.36 3.37-1.76 10-2.1 7.15-2.3 5.4-2.38 4.27-2.5 3.5-2.64 2.9-2.83 2.52-3.08 2.16-3.46 1.9-3.64 1.48" stroke="#010c13" stroke-width="2" fill="none"/><path d="M1070.06 679.87l-.07 2-1-.04v-2z" fill="#010c13"/><path d="M1057.7 787.5l13.4-6.76 1.4 9.16z" stroke="#010c13" stroke-width="2" fill="#010c13"/><g><use xlink:href="#w" transform="matrix(1,0,0,1,1107.360830719072,722.9559413043713) translate(0 14.4)"/><use xlink:href="#x" transform="matrix(1,0,0,1,1107.360830719072,722.9559413043713) translate(93.9 14.4)"/><use xlink:href="#y" transform="matrix(1,0,0,1,1107.360830719072,722.9559413043713) translate(131.85000000000002 14.4)"/><use xlink:href="#z" transform="matrix(1,0,0,1,1107.360830719072,722.9559413043713) translate(0 36)"/><use xlink:href="#A" transform="matrix(1,0,0,1,1107.360830719072,722.9559413043713) translate(45.800000000000004 36)"/><use xlink:href="#B" transform="matrix(1,0,0,1,1107.360830719072,722.9559413043713) translate(83.75 36)"/></g><defs><path d="M220-157c-53 9-28 100-34 157h-49v-107c1-27-5-49-29-50C55-147 81-57 75 0H25l-1-190h47c2 12-1 28 3 38 10-53 101-56 108 0 13-22 24-43 59-42 82 1 51 116 57 194h-49v-107c-1-25-5-48-29-50" id="C"/><path d="M133-34C117-15 103 5 69 4 32 3 11-16 11-54c-1-60 55-63 116-61 1-26-3-47-28-47-18 1-26 9-28 27l-52-2c7-38 36-58 82-57s74 22 75 68l1 82c-1 14 12 18 25 15v27c-30 8-71 5-69-32zm-48 3c29 0 43-24 42-57-32 0-66-3-65 30 0 17 8 27 23 27" id="D"/><path d="M135-194c87-1 58 113 63 194h-50c-7-57 23-157-34-157-59 0-34 97-39 157H25l-1-190h47c2 12-1 28 3 38 12-26 28-41 61-42" id="E"/><path d="M25-224v-37h50v37H25zM25 0v-190h50V0H25" id="F"/><path d="M121-226c-27-7-43 5-38 36h38v33H83V0H34v-157H6v-33h28c-9-59 32-81 87-68v32" id="G"/><path d="M185-48c-13 30-37 53-82 52C43 2 14-33 14-96s30-98 90-98c62 0 83 45 84 108H66c0 31 8 55 39 56 18 0 30-7 34-22zm-45-69c5-46-57-63-70-21-2 6-4 13-4 21h74" id="H"/><path d="M137-138c1-29-70-34-71-4 15 46 118 7 119 86 1 83-164 76-172 9l43-7c4 19 20 25 44 25 33 8 57-30 24-41C81-84 22-81 20-136c-2-80 154-74 161-7" id="I"/><path d="M115-3C79 11 28 4 28-45v-112H4v-33h27l15-45h31v45h36v33H77v99c-1 23 16 31 38 25v30" id="J"/><path d="M24 0v-54h51V0H24" id="K"/><path d="M123 10C108 53 80 86 19 72V37c35 8 53-11 59-39L3-190h52l48 148c12-52 28-100 44-148h51" id="L"/><path d="M25 0v-261h50V0H25" id="M"/><g id="a"><use transform="matrix(0.05,0,0,0.05,0,0)" xlink:href="#C"/><use transform="matrix(0.05,0,0,0.05,16,0)" xlink:href="#D"/><use transform="matrix(0.05,0,0,0.05,26,0)" xlink:href="#E"/><use transform="matrix(0.05,0,0,0.05,36.95,0)" xlink:href="#F"/><use transform="matrix(0.05,0,0,0.05,41.95,0)" xlink:href="#G"/><use transform="matrix(0.05,0,0,0.05,47.900000000000006,0)" xlink:href="#H"/><use transform="matrix(0.05,0,0,0.05,57.900000000000006,0)" xlink:href="#I"/><use transform="matrix(0.05,0,0,0.05,67.9,0)" xlink:href="#J"/><use transform="matrix(0.05,0,0,0.05,73.85000000000001,0)" xlink:href="#K"/><use transform="matrix(0.05,0,0,0.05,78.85000000000001,0)" xlink:href="#L"/><use transform="matrix(0.05,0,0,0.05,88.85000000000001,0)" xlink:href="#D"/><use transform="matrix(0.05,0,0,0.05,98.85000000000001,0)" xlink:href="#C"/><use transform="matrix(0.05,0,0,0.05,114.85000000000001,0)" xlink:href="#M"/></g><path d="M194 0L95-120 63-95V0H30v-248h33v124l119-124h40L117-140 236 0h-42" id="N"/><path d="M100-194c63 0 86 42 84 106H49c0 40 14 67 53 68 26 1 43-12 49-29l28 8c-11 28-37 45-77 45C44 4 14-33 15-96c1-61 26-98 85-98zm52 81c6-60-76-77-97-28-3 7-6 17-6 28h103" id="O"/><path d="M179-190L93 31C79 59 56 82 12 73V49c39 6 53-20 64-50L1-190h34L92-34l54-156h33" id="P"/><g id="b"><use transform="matrix(0.05,0,0,0.05,0,0)" xlink:href="#N"/><use transform="matrix(0.05,0,0,0.05,12,0)" xlink:href="#O"/><use transform="matrix(0.05,0,0,0.05,22,0)" xlink:href="#P"/></g><path d="M205 0l-28-72H64L36 0H1l101-248h38L239 0h-34zm-38-99l-47-123c-12 45-31 82-46 123h93" id="Q"/><path d="M33-154v-36h34v36H33zM33 0v-36h34V0H33" id="R"/><g id="c"><use transform="matrix(0.05,0,0,0.05,0,0)" xlink:href="#Q"/><use transform="matrix(0.05,0,0,0.05,12,0)" xlink:href="#R"/></g><path d="M137 0h-34L2-248h35l83 218 83-218h36" id="S"/><path d="M141-36C126-15 110 5 73 4 37 3 15-17 15-53c-1-64 63-63 125-63 3-35-9-54-41-54-24 1-41 7-42 31l-33-3c5-37 33-52 76-52 45 0 72 20 72 64v82c-1 20 7 32 28 27v20c-31 9-61-2-59-35zM48-53c0 20 12 33 32 33 41-3 63-29 60-74-43 2-92-5-92 41" id="T"/><path d="M24 0v-261h32V0H24" id="U"/><path d="M84 4C-5 8 30-112 23-190h32v120c0 31 7 50 39 49 72-2 45-101 50-169h31l1 190h-30c-1-10 1-25-2-33-11 22-28 36-60 37" id="V"/><g id="d"><use transform="matrix(0.05,0,0,0.05,0,0)" xlink:href="#S"/><use transform="matrix(0.05,0,0,0.05,10.65,0)" xlink:href="#T"/><use transform="matrix(0.05,0,0,0.05,20.65,0)" xlink:href="#U"/><use transform="matrix(0.05,0,0,0.05,24.599999999999998,0)" xlink:href="#V"/><use transform="matrix(0.05,0,0,0.05,34.599999999999994,0)" xlink:href="#O"/></g><path d="M27 0v-27h64v-190l-56 39v-29l58-41h29v221h61V0H27" id="W"/><use transform="matrix(0.05,0,0,0.05,0,0)" xlink:href="#W" id="e"/><g id="f"><use transform="matrix(0.05,0,0,0.05,0,0)" xlink:href="#N"/><use transform="matrix(0.05,0,0,0.05,12,0)" xlink:href="#O"/><use transform="matrix(0.05,0,0,0.05,22,0)" xlink:href="#P"/></g><path d="M160-131c35 5 61 23 61 61C221 17 115-2 30 0v-248c76 3 177-17 177 60 0 33-19 50-47 57zm-97-11c50-1 110 9 110-42 0-47-63-36-110-37v79zm0 115c55-2 124 14 124-45 0-56-70-42-124-44v89" id="X"/><g id="g"><use transform="matrix(0.05,0,0,0.05,0,0)" xlink:href="#X"/><use transform="matrix(0.05,0,0,0.05,12,0)" xlink:href="#R"/></g><path d="M101-251c82-7 93 87 43 132L82-64C71-53 59-42 53-27h129V0H18c2-99 128-94 128-182 0-28-16-43-45-43s-46 15-49 41l-32-3c6-41 34-60 81-64" id="Y"/><use transform="matrix(0.05,0,0,0.05,0,0)" xlink:href="#Y" id="h"/><path d="M126-127c33 6 58 20 58 59 0 88-139 92-164 29-3-8-5-16-6-25l32-3c6 27 21 44 54 44 32 0 52-15 52-46 0-38-36-46-79-43v-28c39 1 72-4 72-42 0-27-17-43-46-43-28 0-47 15-49 41l-32-3c6-42 35-63 81-64 48-1 79 21 79 65 0 36-21 52-52 59" id="Z"/><use transform="matrix(0.05,0,0,0.05,0,0)" xlink:href="#Z" id="i"/><path d="M212-179c-10-28-35-45-73-45-59 0-87 40-87 99 0 60 29 101 89 101 43 0 62-24 78-52l27 14C228-24 195 4 139 4 59 4 22-46 18-125c-6-104 99-153 187-111 19 9 31 26 39 46" id="aa"/><g id="j"><use transform="matrix(0.05,0,0,0.05,0,0)" xlink:href="#aa"/><use transform="matrix(0.05,0,0,0.05,12.950000000000001,0)" xlink:href="#R"/></g><path d="M155-56V0h-30v-56H8v-25l114-167h33v167h35v25h-35zm-30-156c-27 46-58 90-88 131h88v-131" id="ab"/><use transform="matrix(0.05,0,0,0.05,0,0)" xlink:href="#ab" id="k"/><path d="M76-208v77h127v40H76V0H24v-248h183v40H76" id="ac"/><g id="l"><use transform="matrix(0.05,0,0,0.05,0,0)" xlink:href="#ac"/><use transform="matrix(0.05,0,0,0.05,10.950000000000001,0)" xlink:href="#F"/><use transform="matrix(0.05,0,0,0.05,15.950000000000001,0)" xlink:href="#M"/><use transform="matrix(0.05,0,0,0.05,20.950000000000003,0)" xlink:href="#H"/></g><path d="M23 0v-37h61v-169l-59 37v-38l62-41h46v211h57V0H23" id="ad"/><use transform="matrix(0.05,0,0,0.05,0,0)" xlink:href="#ad" id="m"/><path d="M182-182c0 78-84 86-111 141h115V0H12c-6-101 99-100 120-180 1-22-12-31-33-32-23 0-32 14-35 34l-49-3c5-45 32-70 84-70 51 0 83 22 83 69" id="ae"/><use transform="matrix(0.05,0,0,0.05,0,0)" xlink:href="#ae" id="n"/><path d="M195 0l-88-114-31 24V0H24v-248h52v113l112-113h60L142-143 257 0h-62" id="af"/><g id="o"><use transform="matrix(0.05,0,0,0.05,0,0)" xlink:href="#af"/><use transform="matrix(0.05,0,0,0.05,12.950000000000001,0)" xlink:href="#H"/><use transform="matrix(0.05,0,0,0.05,22.950000000000003,0)" xlink:href="#L"/></g><path d="M199 0l-22-63H83L61 0H9l90-248h61L250 0h-51zm-33-102l-36-108c-10 38-24 72-36 108h72" id="ag"/><path d="M35-132v-50h50v50H35zM35 0v-49h50V0H35" id="ah"/><g id="p"><use transform="matrix(0.05,0,0,0.05,0,0)" xlink:href="#ag"/><use transform="matrix(0.05,0,0,0.05,12.950000000000001,0)" xlink:href="#ah"/></g><path d="M147 0H94L2-248h55l64 206c17-72 42-137 63-206h54" id="ai"/><path d="M85 4C-2 5 27-109 22-190h50c7 57-23 150 33 157 60-5 35-97 40-157h50l1 190h-47c-2-12 1-28-3-38-12 25-28 42-61 42" id="aj"/><g id="q"><use transform="matrix(0.05,0,0,0.05,0,0)" xlink:href="#ai"/><use transform="matrix(0.05,0,0,0.05,11,0)" xlink:href="#D"/><use transform="matrix(0.05,0,0,0.05,21,0)" xlink:href="#M"/><use transform="matrix(0.05,0,0,0.05,26,0)" xlink:href="#aj"/><use transform="matrix(0.05,0,0,0.05,36.95,0)" xlink:href="#H"/></g><path d="M128-127c34 4 56 21 59 58 7 91-148 94-172 28-4-9-6-17-7-26l51-5c1 24 16 35 40 36 23 0 39-12 38-36-1-31-31-36-65-34v-40c32 2 59-3 59-33 0-20-13-33-34-33s-33 13-35 32l-50-3c6-44 37-68 86-68 50 0 83 20 83 66 0 35-22 52-53 58" id="ak"/><use transform="matrix(0.05,0,0,0.05,0,0)" xlink:href="#ak" id="r"/><use transform="matrix(0.05,0,0,0.05,0,0)" xlink:href="#Y" id="s"/><g id="t"><use transform="matrix(0.05,0,0,0.05,0,0)" xlink:href="#af"/><use transform="matrix(0.05,0,0,0.05,12.950000000000001,0)" xlink:href="#H"/><use transform="matrix(0.05,0,0,0.05,22.950000000000003,0)" xlink:href="#L"/></g><path d="M67-125c0 53 21 87 73 88 37 1 54-22 65-47l45 17C233-25 199 4 140 4 58 4 20-42 15-125 8-235 124-281 211-232c18 10 29 29 36 50l-46 12c-8-25-30-41-62-41-52 0-71 34-72 86" id="al"/><g id="u"><use transform="matrix(0.05,0,0,0.05,0,0)" xlink:href="#al"/><use transform="matrix(0.05,0,0,0.05,12.950000000000001,0)" xlink:href="#ah"/></g><path d="M165-50V0h-47v-50H5v-38l105-160h55v161h33v37h-33zm-47-37l2-116L46-87h72" id="am"/><use transform="matrix(0.05,0,0,0.05,0,0)" xlink:href="#am" id="v"/><path fill="#fff" d="M140-251c80 0 125 45 125 126S219 4 139 4C58 4 15-44 15-125s44-126 125-126zm-1 214c52 0 73-35 73-88 0-50-21-86-72-86-52 0-73 35-73 86s22 88 72 88" id="an"/><path fill="#fff" d="M128 0H69L1-190h53L99-40l48-150h52" id="ao"/><path fill="#fff" d="M185-48c-13 30-37 53-82 52C43 2 14-33 14-96s30-98 90-98c62 0 83 45 84 108H66c0 31 8 55 39 56 18 0 30-7 34-22zm-45-69c5-46-57-63-70-21-2 6-4 13-4 21h74" id="ap"/><path fill="#fff" d="M135-150c-39-12-60 13-60 57V0H25l-1-190h47c2 13-1 29 3 40 6-28 27-53 61-41v41" id="aq"/><path fill="#fff" d="M231 0h-52l-39-155L100 0H48L-1-190h46L77-45c9-52 24-97 36-145h53l37 145 32-145h46" id="ar"/><path fill="#fff" d="M25-224v-37h50v37H25zM25 0v-190h50V0H25" id="as"/><path fill="#fff" d="M115-3C79 11 28 4 28-45v-112H4v-33h27l15-45h31v45h36v33H77v99c-1 23 16 31 38 25v30" id="at"/><path fill="#fff" d="M35-132v-50h50v50H35zM35 0v-49h50V0H35" id="au"/><g id="w"><use transform="matrix(0.05,0,0,0.05,0,0)" xlink:href="#an"/><use transform="matrix(0.05,0,0,0.05,14,0)" xlink:href="#ao"/><use transform="matrix(0.05,0,0,0.05,24,0)" xlink:href="#ap"/><use transform="matrix(0.05,0,0,0.05,34,0)" xlink:href="#aq"/><use transform="matrix(0.05,0,0,0.05,41,0)" xlink:href="#ar"/><use transform="matrix(0.05,0,0,0.05,55,0)" xlink:href="#aq"/><use transform="matrix(0.05,0,0,0.05,62,0)" xlink:href="#as"/><use transform="matrix(0.05,0,0,0.05,67,0)" xlink:href="#at"/><use transform="matrix(0.05,0,0,0.05,72.95,0)" xlink:href="#ap"/><use transform="matrix(0.05,0,0,0.05,82.95,0)" xlink:href="#au"/></g><path fill="#fff" d="M195 0l-88-114-31 24V0H24v-248h52v113l112-113h60L142-143 257 0h-62" id="av"/><path fill="#fff" d="M123 10C108 53 80 86 19 72V37c35 8 53-11 59-39L3-190h52l48 148c12-52 28-100 44-148h51" id="aw"/><g id="x"><use transform="matrix(0.05,0,0,0.05,0,0)" xlink:href="#av"/><use transform="matrix(0.05,0,0,0.05,12.950000000000001,0)" xlink:href="#ap"/><use transform="matrix(0.05,0,0,0.05,22.950000000000003,0)" xlink:href="#aw"/></g><path fill="#fff" d="M199 0l-22-63H83L61 0H9l90-248h61L250 0h-51zm-33-102l-36-108c-10 38-24 72-36 108h72" id="ax"/><use transform="matrix(0.05,0,0,0.05,0,0)" xlink:href="#ax" id="y"/><path fill="#fff" d="M88-194c31-1 46 15 58 34l-1-101h50l1 261h-48c-2-10 0-23-3-31C134-8 116 4 84 4 32 4 16-41 15-95c0-56 19-97 73-99zm17 164c33 0 40-30 41-66 1-37-9-64-41-64s-38 30-39 65c0 43 13 65 39 65" id="ay"/><g id="z"><use transform="matrix(0.05,0,0,0.05,0,0)" xlink:href="#ax"/><use transform="matrix(0.05,0,0,0.05,12.950000000000001,0)" xlink:href="#ay"/><use transform="matrix(0.05,0,0,0.05,23.900000000000002,0)" xlink:href="#ay"/><use transform="matrix(0.05,0,0,0.05,34.85,0)" xlink:href="#au"/></g><g id="A"><use transform="matrix(0.05,0,0,0.05,0,0)" xlink:href="#av"/><use transform="matrix(0.05,0,0,0.05,12.950000000000001,0)" xlink:href="#ap"/><use transform="matrix(0.05,0,0,0.05,22.950000000000003,0)" xlink:href="#aw"/></g><path fill="#fff" d="M67-125c0 53 21 87 73 88 37 1 54-22 65-47l45 17C233-25 199 4 140 4 58 4 20-42 15-125 8-235 124-281 211-232c18 10 29 29 36 50l-46 12c-8-25-30-41-62-41-52 0-71 34-72 86" id="az"/><use transform="matrix(0.05,0,0,0.05,0,0)" xlink:href="#az" id="B"/></defs></g></svg>